<svg id="Layer_1" data-name="Layer 1" xmlns="http://www.w3.org/2000/svg" xmlns:xlink="http://www.w3.org/1999/xlink" viewBox="0 0 512 512"><defs><linearGradient id="linear-gradient" x1="256" y1="499.55" x2="256" y2="9.55" gradientUnits="userSpaceOnUse"><stop offset="0" stop-color="#aaaaa9"/><stop offset="1" stop-color="#dddfdd"/></linearGradient><linearGradient id="linear-gradient-2" x1="256.15" y1="355.54" x2="256.15" y2="159.41" gradientUnits="userSpaceOnUse"><stop offset="0" stop-color="#211e15"/><stop offset="1" stop-color="#4d4d4f"/></linearGradient></defs><title>volume_up</title><path d="M256.15,501c134.79,0,244.7-110.2,244.7-245S390.94,11,256.15,11s-245,110.21-245,245S121.35,501,256.15,501Z" fill-rule="evenodd" fill="url(#linear-gradient)"/><path d="M256.15,26.11c123.24,0,223.37,100.13,223.37,223.67V256C476.27,135.43,377.31,38.55,256.15,38.55,134.68,38.55,36,135.43,32.48,256v-6.22C32.48,126.24,132.61,26.11,256.15,26.11Z" fill="#eff0ef" fill-rule="evenodd"/><path d="M336.43,321.48V306.36A65.53,65.53,0,0,0,360.13,256h0a65.07,65.07,0,0,0-23.7-50.36V190.53l2.67-3.26h0c22.51,14.82,37.62,40,37.62,68.73a81.45,81.45,0,0,1-37.62,68.43l-2.67-3Zm0-37.92A49.7,49.7,0,0,0,345,256h0a48.28,48.28,0,0,0-8.59-27.56Zm0-93v15.11a53.5,53.5,0,0,0-8.29-5.93l8.29-9.18Zm0,37.92v55.11a49.6,49.6,0,0,1-19,16.88l-8-8.88v-5a34.13,34.13,0,0,0,19-30.51h0a34.11,34.11,0,0,0-19-30.51v-5.34l8-8.59h0a49.63,49.63,0,0,1,19,16.88Zm0,77.92v15.11l-8.29-9.19h0a84.58,84.58,0,0,0,8.29-5.93Zm-27-39.7A18.91,18.91,0,0,0,312.73,256h0a18.22,18.22,0,0,0-3.26-10.67ZM135.57,221v69.62a14.16,14.16,0,0,0,13.92,14.22h59.84l62.81,47.4c5.33,4.15,9.78.89,9.78-7.41h0V167.13c0-5.93-2.07-9.18-5.33-9.18a7.11,7.11,0,0,0-4.44,1.78h0l-62.81,47.4H149.5A13.91,13.91,0,0,0,135.57,221Zm173.9-.89v5.34c-1.18-.59-2.37-.89-3.55-1.48l3.55-3.85Zm0,25.18v21.33a18.65,18.65,0,0,1-15.11,7.7h-.59V262.22h0a6.68,6.68,0,0,0,4.74-6.22h0a6.67,6.67,0,0,0-4.74-6.22V237.63h.59a18.66,18.66,0,0,1,15.11,7.7Zm0,41.18v5L305.92,288h0A17.88,17.88,0,0,1,309.47,286.52Z" fill-rule="evenodd" fill="url(#linear-gradient-2)"/></svg>