<svg id="Layer_1" data-name="Layer 1" xmlns="http://www.w3.org/2000/svg" xmlns:xlink="http://www.w3.org/1999/xlink" viewBox="0 0 512 512"><defs><linearGradient id="linear-gradient" x1="256" y1="499.55" x2="256" y2="9.55" gradientUnits="userSpaceOnUse"><stop offset="0" stop-color="#aaaaa9"/><stop offset="1" stop-color="#dddfdd"/></linearGradient><linearGradient id="linear-gradient-2" x1="256" y1="351.43" x2="256" y2="157.66" gradientUnits="userSpaceOnUse"><stop offset="0" stop-color="#211e15"/><stop offset="1" stop-color="#4d4d4f"/></linearGradient></defs><title>volume_down</title><path d="M256,501c135.09,0,245-110.2,245-245S391.09,11,256,11C121.21,11,11,121.21,11,256S121.21,501,256,501Z" fill-rule="evenodd" fill="url(#linear-gradient)"/><path d="M256,26.11c123.54,0,223.67,100.13,223.67,223.67V256C476.41,135.43,377.46,38.55,256,38.55S35.89,135.43,32.33,256v-6.22C32.33,126.24,132.46,26.11,256,26.11Z" fill="#eff0ef" fill-rule="evenodd"/><path d="M168.31,221.34v69a13.91,13.91,0,0,0,13.92,13.92h59.25L303.7,351.1c5.33,4.15,9.78.89,9.78-7.41h0V168c0-5.63-2.37-8.89-5.33-8.89a7.11,7.11,0,0,0-4.44,1.78h0l-62.21,46.81H182.23a13.85,13.85,0,0,0-13.92,13.63ZM325,237.93v11.85a6.4,6.4,0,0,1,4.44,6.22h0a5.81,5.81,0,0,1-4.44,5.92h0v12.15h.59A18,18,0,0,0,343.69,256h0a18.21,18.21,0,0,0-18.07-18.37h0a1,1,0,0,0-.59.3Z" fill-rule="evenodd" fill="url(#linear-gradient-2)"/></svg>